<svg width="220" height="98" viewBox="0 0 220 98" fill="none" xmlns="http://www.w3.org/2000/svg">
<path d="M57.0903 29.3686C48.2209 45.1364 45.7262 53.0561 49.0775 67.8022C51.7651 79.628 62.8743 88.6945 70.9553 91.2568C79.0363 93.8191 100.326 96.003 117.894 88.1037C128.862 83.172 134.53 78.7773 142.926 70.1678C150.842 62.0509 155.343 53.0198 158.891 46.7127C160.054 44.6439 166.972 32.3246 166.972 23.2581C166.972 12.6148 160.665 8.67279 154.357 8.67285C148.05 8.67291 138.933 14.5858 145.685 39.0264C149.313 52.1569 155.571 63.6427 169.14 64.8462C177.925 65.6254 184.391 63.3765 190.229 56.7652C197.364 48.6855 198.015 44.9388 198.015 30.9449C198.015 27.0029 196.339 17.5422 190.229 10.4467" stroke="#74D4FF" stroke-width="7.88391"/>
<path d="M11.5231 23.7315V52H4.71142V23.7315H11.5231ZM8.11727 19.8715C6.79277 19.8715 5.71426 19.4741 4.88172 18.6795C4.04918 17.8848 3.6329 16.863 3.6329 15.6142C3.6329 14.4032 4.04918 13.4004 4.88172 12.6057C5.71426 11.811 6.79277 11.4136 8.11727 11.4136C9.44177 11.4136 10.5203 11.811 11.3528 12.6057C12.1854 13.3625 12.6016 14.3654 12.6016 15.6142C12.6016 16.863 12.1854 17.8848 11.3528 18.6795C10.5203 19.4741 9.44177 19.8715 8.11727 19.8715ZM54.2173 23.7315V24.6964L40.4804 52H31.6252L17.8315 24.6964V23.7315H24.927L36.0528 46.0398L47.1218 23.7315H54.2173ZM93.797 23.7315V24.6964L78.3571 54.7247C77.0705 57.2223 75.5378 59.0009 73.7592 60.0605C71.9806 61.1201 69.6344 61.6499 66.7205 61.6499H60.3061V55.6329H66.6637C68.1017 55.6329 69.1613 55.4248 69.8425 55.0085C70.5237 54.5922 71.167 53.7597 71.7725 52.5109L57.4112 24.6964V23.7315H64.677L75.6324 45.6424L86.5312 23.7315H93.797ZM116.858 23.0503C120.188 23.0503 123.083 23.6369 125.543 24.81C128.041 25.9831 129.952 27.6482 131.276 29.8052C132.601 31.9623 133.263 34.5166 133.263 37.4684V38.2063C133.263 41.158 132.601 43.7314 131.276 45.9262C129.952 48.0833 128.041 49.7484 125.543 50.9215C123.083 52.0946 120.188 52.6812 116.858 52.6812C112.658 52.6812 109.176 51.5837 106.414 49.3888L106.243 52H99.8858V12.4922H106.697V26.1723C109.498 24.091 112.885 23.0503 116.858 23.0503ZM126.224 37.4684C126.224 34.8951 125.335 32.8894 123.556 31.4514C121.816 30.0134 119.356 29.2943 116.177 29.2943C114.171 29.2943 112.317 29.6349 110.614 30.3161C108.949 30.9973 107.644 31.9244 106.697 33.0975V42.5204C107.644 43.7314 108.949 44.6963 110.614 45.4154C112.317 46.0965 114.171 46.4371 116.177 46.4371C119.318 46.4371 121.778 45.7181 123.556 44.2801C125.335 42.8042 126.224 40.7796 126.224 38.2063V37.4684ZM218.735 51.035V52H210.277L199.379 40.2498L192.453 46.0398V52H185.642V12.4922H192.453V37.6387L209.142 23.7315H218.054V24.6964L204.658 35.9357L218.735 51.035Z" fill="#2B7FFF"/>
</svg>
